<svg width="90" height="38" fill="none" xmlns="http://www.w3.org/2000/svg"><path fill-rule="evenodd" clip-rule="evenodd" d="M54.271 3.07c0-2.426.018-2.815.137-2.934.118-.118.46-.137 2.422-.136 1.286 0 2.342.038 2.416.084.11.07.134.513.156 2.926.017 1.906-.006 2.9-.069 3.018-.09.169-.18.175-2.487.175-2.278 0-2.398-.008-2.484-.169-.057-.106-.09-1.205-.09-2.965Zm-23.798 9.365c2.264-1.292 4.724-2.114 7.13-2.381.97-.108 3.152-.045 4.148.12 4.05.671 6.892 2.99 8.06 6.575.557 1.708.563 1.8.616 8.913.047 6.406.05 6.485.23 6.729a.887.887 0 0 0 .525.32c.2.044.334.06.424.13.197.156.184.578.201 2.14l.024 2.063-.202.133c-.111.072-.604.178-1.095.234-1 .114-1.646.044-2.468-.267-1.389-.524-1.931-1.291-2.058-2.912l-.053-.677-.75.723c-1.663 1.602-3.97 2.778-6.39 3.255-1.024.202-2.95.266-3.94.131-3.98-.54-6.988-3.166-7.705-6.724-.199-.985-.137-2.742.128-3.66 1.004-3.472 4.305-5.768 9.08-6.314 1.16-.133 4.11-.06 5.24.13 1.137.192 2.01.387 2.829.63.38.114.728.207.772.207.141 0 .022-3.122-.142-3.714-.452-1.634-1.498-2.956-2.858-3.615-1.146-.555-1.707-.661-3.482-.662-1.31 0-1.645.029-2.356.205-1.65.41-3.296 1.144-4.97 2.221-.774.498-.92.593-1.027.56-.026-.008-.05-.024-.08-.043-.191-.123-1.616-2.983-1.587-3.186.031-.22.425-.504 1.756-1.264Zm34.312 4.997c1.983-4.004 5.72-6.653 10.213-7.236.706-.092 2.85-.049 3.677.074a12.993 12.993 0 0 1 7.106 3.511 13.524 13.524 0 0 1 3.778 6.548c.276 1.115.3 1.273.402 2.52.156 1.927-.164 4.235-.843 6.074-1.569 4.252-5.196 7.445-9.534 8.393-6.808 1.488-13.404-2.226-15.583-8.774-.578-1.737-.691-2.497-.691-4.643 0-1.673.026-2.042.198-2.84.291-1.345.645-2.348 1.277-3.627ZM54.375 37.47c-.151-.153-.151-26.99 0-27.142.077-.077.75-.105 2.485-.105 2.263 0 2.384.008 2.47.169.06.114.09 4.48.09 13.507s-.03 13.392-.09 13.507c-.086.16-.207.169-2.47.169-1.734 0-2.408-.029-2.484-.105Zm30.972-12.512c.508-5.061-2.543-9.768-6.965-10.743-2.837-.626-5.659.281-7.76 2.496-1.342 1.416-2.227 3.2-2.61 5.265-.223 1.206-.143 3.547.162 4.701 1.075 4.066 4.245 6.848 8.002 7.026 2.476.116 4.493-.695 6.327-2.547 1.68-1.697 2.591-3.681 2.844-6.198Zm-40.348.267c-.536-.222-1.943-.583-2.99-.767-1.375-.242-3.854-.302-4.97-.12-3.28.533-5.109 2.188-5.109 4.62 0 1.34.376 2.262 1.31 3.21 1.196 1.214 2.953 1.752 5.07 1.552 1.471-.138 2.737-.55 4.117-1.337 1.263-.72 2.197-1.616 2.671-2.56.172-.344.184-.506.184-2.424v-2.056L45 25.225ZM.205 10.257l7.737-.02c6.916-.019 7.75-.014 7.858.042.136.072.217.28.159.406-.032.07-2.596 3.166-2.863 3.458l-.104.113H3.925v2.36c0 1.665-.013 2.387-.045 2.447a1.45 1.45 0 0 1-.157.213c-.061.07-.797.962-1.635 1.984-.909 1.107-1.565 1.873-1.626 1.896-.17.066-.367-.044-.42-.233C.008 22.81 0 21.03.007 16.605l.012-6.161s0-.064.04-.125c.041-.062.145-.062.145-.062Zm-.17 24.005c.036-.092 20.16-23.85 20.326-23.995.073-.064.19-.071 1.152-.071 1.117 0 1.26.02 1.323.186.014.037.026.79.026 1.674 0 1.45-.007 1.617-.07 1.707-.177.257-20.06 23.814-20.136 23.857-.11.063-2.273.074-2.433.012-.21-.08-.223-.19-.223-1.8 0-.812.016-1.518.036-1.57Zm18.98-6.73c.033-.091 3.069-2.487 3.377-2.666.145-.084.288-.064.409.056.08.08.08.135.08 6.337v6.257l-.095.078c-.093.077-.276.079-7.887.079H7.106l-.093-.09a.304.304 0 0 1-.094-.238c0-.135.138-.329 1.34-1.89.736-.957 1.368-1.763 1.403-1.79.05-.041 1.051-.052 4.69-.052h4.625v-2.991c0-1.71.016-3.034.037-3.09Z" fill="#fff"></path></svg>